<svg width="20" height="20" viewBox="0 0 20 20" fill="none" xmlns="http://www.w3.org/2000/svg">
<path d="M8.33333 18.3333H11.6667C15.8333 18.3333 17.5 16.6667 17.5 12.5V7.5C17.5 3.33334 15.8333 1.66667 11.6667 1.66667H8.33333C4.16667 1.66667 2.5 3.33334 2.5 7.5V12.5C2.5 16.6667 4.16667 18.3333 8.33333 18.3333Z" stroke="#F8F8F8" stroke-width="1.5" stroke-linecap="round" stroke-linejoin="round"/>
<path d="M13.75 6.31667V7.15C13.75 7.83333 13.1917 8.4 12.5 8.4H7.5C6.81667 8.4 6.25 7.84167 6.25 7.15V6.31667C6.25 5.63333 6.80833 5.06667 7.5 5.06667H12.5C13.1917 5.06667 13.75 5.625 13.75 6.31667Z" stroke="#F8F8F8" stroke-width="1.5" stroke-linecap="round" stroke-linejoin="round"/>
<path d="M6.7801 11.6667H6.78973" stroke="#F8F8F8" stroke-width="2" stroke-linecap="round" stroke-linejoin="round"/>
<path d="M9.99604 11.6667H10.0057" stroke="#F8F8F8" stroke-width="2" stroke-linecap="round" stroke-linejoin="round"/>
<path d="M13.2119 11.6667H13.2216" stroke="#F8F8F8" stroke-width="2" stroke-linecap="round" stroke-linejoin="round"/>
<path d="M6.7801 14.5833H6.78973" stroke="#F8F8F8" stroke-width="2" stroke-linecap="round" stroke-linejoin="round"/>
<path d="M9.99604 14.5833H10.0057" stroke="#F8F8F8" stroke-width="2" stroke-linecap="round" stroke-linejoin="round"/>
<path d="M13.2119 14.5833H13.2216" stroke="#F8F8F8" stroke-width="2" stroke-linecap="round" stroke-linejoin="round"/>
</svg>
